SplineFontDB: 3.2
FontName: modern135
FullName: modern135
FamilyName: modern135
Weight: Regular
Copyright: Copyright (c) 2019, Samuele Panzeri
Version: 0.1.0
ItalicAngle: 0
UnderlinePosition: -205
UnderlineWidth: 102
Ascent: 1706
Descent: 342
InvalidEm: 0
LayerCount: 2
Layer: 0 1 "Back" 1
Layer: 1 1 "Fore" 0
XUID: [1021 1002 -1547771423 29908]
StyleMap: 0x0040
FSType: 0
OS2Version: 3
OS2_WeightWidthSlopeOnly: 0
OS2_UseTypoMetrics: 0
CreationTime: 1573011804
ModificationTime: 1573315157
PfmFamily: 17
TTFWeight: 400
TTFWidth: 5
LineGap: 184
VLineGap: 0
OS2TypoAscent: 1900
OS2TypoAOffset: 0
OS2TypoDescent: -500
OS2TypoDOffset: 0
OS2TypoLinegap: 0
OS2WinAscent: 1900
OS2WinAOffset: 0
OS2WinDescent: 500
OS2WinDOffset: 0
HheadAscent: 1900
HheadAOffset: 0
HheadDescent: -500
HheadDOffset: 0
OS2CapHeight: 1368
OS2XHeight: 957
OS2Vendor: 'SPAN'
MarkAttachClasses: 1
DEI: 91125
ShortTable: maxp 16
  0
  0
  0
  0
  0
  0
  0
  2
  1
  2
  22
  0
  256
  0
  0
  0
EndShort
TtTable: prep
PUSHW_1
 511
SCANCTRL
PUSHB_1
 1
SCANTYPE
SVTCA[y-axis]
MPPEM
PUSHB_1
 8
LT
IF
PUSHB_2
 1
 1
INSTCTRL
EIF
PUSHB_2
 70
 6
CALL
IF
POP
PUSHB_1
 16
EIF
MPPEM
PUSHB_1
 20
GT
IF
POP
PUSHB_1
 128
EIF
SCVTCI
PUSHB_1
 6
CALL
NOT
IF
EIF
PUSHB_1
 20
CALL
EndTTInstrs
TtTable: fpgm
PUSHB_1
 0
FDEF
PUSHB_1
 0
SZP0
MPPEM
PUSHB_1
 42
LT
IF
PUSHB_1
 74
SROUND
EIF
PUSHB_1
 0
SWAP
MIAP[rnd]
RTG
PUSHB_1
 6
CALL
IF
RTDG
EIF
MPPEM
PUSHB_1
 42
LT
IF
RDTG
EIF
DUP
MDRP[rp0,rnd,grey]
PUSHB_1
 1
SZP0
MDAP[no-rnd]
RTG
ENDF
PUSHB_1
 1
FDEF
DUP
MDRP[rp0,min,white]
PUSHB_1
 12
CALL
ENDF
PUSHB_1
 2
FDEF
MPPEM
GT
IF
RCVT
SWAP
EIF
POP
ENDF
PUSHB_1
 3
FDEF
ROUND[Black]
RTG
DUP
PUSHB_1
 64
LT
IF
POP
PUSHB_1
 64
EIF
ENDF
PUSHB_1
 4
FDEF
PUSHB_1
 6
CALL
IF
POP
SWAP
POP
ROFF
IF
MDRP[rp0,min,rnd,black]
ELSE
MDRP[min,rnd,black]
EIF
ELSE
MPPEM
GT
IF
IF
MIRP[rp0,min,rnd,black]
ELSE
MIRP[min,rnd,black]
EIF
ELSE
SWAP
POP
PUSHB_1
 5
CALL
IF
PUSHB_1
 70
SROUND
EIF
IF
MDRP[rp0,min,rnd,black]
ELSE
MDRP[min,rnd,black]
EIF
EIF
EIF
RTG
ENDF

StartChar: O
Encoding: 79 79 48
Width: 1220
VWidth: 0
Flags: W
LayerCount: 2
Back
Fore
SplineSet
614 1378 m 0,0,1
 1089 1378 1089 1378 1089 1044 c 2,2,-1
 1089 1012 l 1,3,-1
 1089 347 l 1,4,-1
 1089 315 l 2,5,6
 1089 -19 1089 -19 613 -19 c 0,7,8
 133 -19 133 -19 133 316 c 2,9,-1
 133 348 l 1,10,-1
 133 1013 l 1,11,-1
 133 1045 l 1,12,13
 133 1378 133 1378 614 1378 c 0,0,1
611 121 m 144,-1,15
 949 121 949 121 949 315 c 2,16,-1
 949 347 l 1,17,-1
 949 1012 l 1,18,-1
 949 1044 l 1,19,20
 949 1238 949 1238 614 1238 c 8,21,22
 273 1238 273 1238 273 1045 c 2,23,-1
 273 1013 l 1,24,-1
 273 348 l 1,25,-1
 273 316 l 10,26,27
 273 121 273 121 611 121 c 144,-1,15
EndSplineSet
Validated: 3073
EndChar

StartChar: T
Encoding: 84 84 53
Width: 1220
VWidth: 0
Flags: W
LayerCount: 2
Back
Fore
SplineSet
686 -14 m 9,0,-1
 545 -14 l 17,1,-1
 545 1218 l 1,2,-1
 144 1218 l 1,3,-1
 144 1368 l 1,4,-1
 1087 1368 l 17,5,-1
 1087 1219 l 1,6,-1
 686 1219 l 1,7,-1
 686 -14 l 9,0,-1
EndSplineSet
Validated: 1
EndChar

StartChar: a
Encoding: 97 97 66
Width: 1220
VWidth: 0
Flags: W
LayerCount: 2
Back
Fore
SplineSet
718 957 m 0,0,1
 1090 957 1090 957 1090 757 c 9,2,-1
 1090 -18 l 17,3,-1
 951 -18 l 1,4,-1
 951 146 l 1,5,6
 951 -18 951 -18 520 -18 c 0,7,8
 136 -18 136 -18 136 319 c 8,9,10
 136 595 136 595 521 595 c 0,11,12
 735 595 735 595 950 595 c 9,13,-1
 950 757 l 1,14,15
 950 817 950 817 312 817 c 0,16,-1
 312 957 l 17,17,18
 515 957 515 957 718 957 c 0,0,1
951 405 m 1,19,20
 951 455 951 455 521 455 c 0,21,22
 276 455 276 455 276 319 c 0,23,24
 276 122 276 122 520 122 c 0,25,26
 951 122 951 122 951 286 c 0,27,-1
 951 405 l 1,19,20
EndSplineSet
Validated: 3073
EndChar

StartChar: b
Encoding: 98 98 67
Width: 1220
VWidth: 0
Flags: WO
LayerCount: 2
Back
Fore
SplineSet
273 333 m 1,0,-1
 273 318 l 1,1,2
 273 122 273 122 704 122 c 0,3,4
 948 122 948 122 948 316 c 1,5,-1
 948 348 l 1,6,-1
 948 623 l 1,7,-1
 948 655 l 2,8,9
 948 849 948 849 703 849 c 0,10,11
 273 849 273 849 273 581 c 2,12,-1
 273 564 l 1,13,-1
 273 333 l 1,0,-1
273 146 m 1,14,-1
 273 -18 l 1,15,-1
 133 -18 l 1,16,-1
 133 1382 l 1,17,-1
 273 1382 l 1,18,-1
 273 824 l 1,19,-1
 273 817 l 1,20,21
 273 989 273 989 703 989 c 0,22,23
 1088 989 1088 989 1088 655 c 2,24,-1
 1088 622 l 1,25,-1
 1088 349 l 1,26,-1
 1088 316 l 2,27,28
 1088 -18 1088 -18 704 -18 c 0,29,30
 273 -18 273 -18 273 146 c 1,14,-1
EndSplineSet
EndChar

StartChar: c
Encoding: 99 99 68
Width: 1220
VWidth: 0
Flags: W
LayerCount: 2
Back
Fore
SplineSet
136 601 m 1,0,-1
 136 634 l 2,1,2
 136 968 136 968 614 968 c 0,3,4
 1091 968 1091 968 1091 650 c 1,5,-1
 951 650 l 1,6,7
 951 828 951 828 614 828 c 0,8,9
 276 828 276 828 276 634 c 1,10,-1
 276 602 l 1,11,-1
 276 348 l 1,12,-1
 276 316 l 1,13,14
 276 122 276 122 614 122 c 0,15,16
 951 122 951 122 951 300 c 1,17,-1
 1091 300 l 1,18,19
 1091 -18 1091 -18 614 -18 c 0,20,21
 136 -18 136 -18 136 316 c 2,22,-1
 136 349 l 1,23,-1
 136 601 l 1,0,-1
EndSplineSet
Validated: 3073
EndChar

StartChar: d
Encoding: 100 100 69
Width: 1220
VWidth: 0
Flags: W
LayerCount: 2
Back
Fore
SplineSet
951 333 m 1,0,-1
 951 564 l 1,1,-1
 951 581 l 2,2,3
 951 849 951 849 521 849 c 0,4,5
 276 849 276 849 276 655 c 2,6,-1
 276 623 l 1,7,-1
 276 348 l 1,8,-1
 276 316 l 1,9,10
 276 122 276 122 520 122 c 0,11,12
 951 122 951 122 951 318 c 1,13,-1
 951 333 l 1,0,-1
951 146 m 1,14,15
 951 -18 951 -18 520 -18 c 0,16,17
 136 -18 136 -18 136 316 c 2,18,-1
 136 349 l 1,19,-1
 136 622 l 1,20,-1
 136 655 l 2,21,22
 136 989 136 989 521 989 c 0,23,24
 951 989 951 989 951 817 c 1,25,-1
 951 824 l 1,26,-1
 951 1382 l 1,27,-1
 1091 1382 l 1,28,-1
 1091 -18 l 1,29,-1
 951 -18 l 1,30,-1
 951 146 l 1,14,15
EndSplineSet
EndChar

StartChar: e
Encoding: 101 101 70
Width: 1220
VWidth: 0
Flags: MW
LayerCount: 2
Back
Fore
SplineSet
613 -14 m 0,0,1
 133 -14 133 -14 133 321 c 2,2,-1
 133 353 l 1,3,-1
 133 543 l 1,4,-1
 133 639 l 1,5,6
 133 972 133 972 614 972 c 0,7,8
 1089 972 1089 972 1089 638 c 2,9,-1
 1089 404 l 1,10,-1
 273 404 l 17,11,-1
 273 353 l 1,12,-1
 273 321 l 2,13,14
 273 128 273 128 616 128 c 0,15,-1
 955 128 l 25,16,-1
 955 -14 l 17,17,-1
 613 -14 l 0,0,1
273 544 m 9,18,-1
 949 544 l 1,19,-1
 949 638 l 1,20,21
 949 832 949 832 614 832 c 8,22,23
 273 832 273 832 273 639 c 2,24,-1
 273 544 l 9,18,-1
EndSplineSet
Validated: 3073
EndChar

StartChar: f
Encoding: 102 102 71
Width: 1220
VWidth: 0
Flags: W
LayerCount: 2
Back
Fore
SplineSet
546 693 m 1,0,-1
 815 693 l 1,1,-1
 815 543 l 1,2,-1
 546 543 l 1,3,-1
 546 -12 l 1,4,-1
 406 -12 l 1,5,-1
 406 543 l 1,6,-1
 137 543 l 1,7,-1
 137 693 l 1,8,-1
 406 693 l 1,9,-1
 406 1062 l 1,10,-1
 406 1102 l 2,11,12
 406 1398 406 1398 714 1398 c 0,13,14
 1092 1398 1092 1398 1092 997 c 2,15,-1
 1092 957 l 9,16,-1
 952 957 l 1,17,-1
 952 997 l 2,18,19
 952 1258 952 1258 714 1258 c 0,20,21
 546 1258 546 1258 546 1102 c 2,22,-1
 546 1062 l 1,23,-1
 546 693 l 1,0,-1
EndSplineSet
Validated: 3073
EndChar

StartChar: g
Encoding: 103 103 72
Width: 1227
VWidth: 0
Flags: W
LayerCount: 2
Back
Fore
SplineSet
1006 978 m 5,0,-1
 1060 978 l 5,1,2
 1060 893 1060 893 1036 858 c 4,3,4
 1003 809 1003 809 937 795 c 5,5,6
 965 741 965 741 965 651 c 0,7,8
 965 531 965 531 863 429 c 0,9,10
 777 343 777 343 537 343 c 0,11,12
 370 343 370 343 343 364 c 1,13,14
 277 329 277 329 277 270 c 128,-1,15
 277 211 277 211 438 211 c 1,16,-1
 713 211 l 1,17,18
 906 211 906 211 1007 138 c 0,19,20
 1094 75 1094 75 1094 -53 c 0,21,22
 1094 -337 1094 -337 549 -337 c 0,23,24
 136 -337 136 -337 136 -63 c 0,25,26
 136 85 136 85 227 183 c 1,27,28
 143 223 143 223 143 288 c 0,29,30
 143 363 143 363 255 414 c 1,31,32
 136 504 136 504 136 658 c 0,33,34
 136 835 136 835 222 895 c 0,35,36
 345 981 345 981 547 981 c 0,37,38
 751 981 751 981 860 927 c 5,39,40
 880 910 880 910 928 910 c 132,-1,41
 976 910 976 910 1006 978 c 5,0,-1
275 683 m 0,42,43
 275 477 275 477 547 477 c 0,44,45
 828 477 828 477 828 672 c 0,46,47
 828 857 828 857 564 857 c 0,48,49
 275 857 275 857 275 683 c 0,42,43
450 77 m 2,50,51
 271 77 271 77 271 -101 c 0,52,53
 271 -207 271 -207 557 -207 c 0,54,55
 959 -207 959 -207 959 -65 c 0,56,57
 959 -39 959 -39 919 5 c 0,58,59
 854 77 854 77 713 77 c 2,60,-1
 450 77 l 2,50,51
EndSplineSet
EndChar

StartChar: h
Encoding: 104 104 73
Width: 1220
VWidth: 0
Flags: W
LayerCount: 2
Back
Fore
SplineSet
133 1382 m 5,0,-1
 273 1382 l 5,1,-1
 273 803 l 5,2,-1
 273 796 l 5,3,4
 273 968 273 968 703 968 c 4,5,6
 1088 968 1088 968 1088 634 c 6,7,-1
 1088 601 l 5,8,-1
 1088 -18 l 5,9,-1
 948 -18 l 5,10,-1
 948 602 l 5,11,-1
 948 634 l 6,12,13
 948 828 948 828 703 828 c 4,14,15
 273 828 273 828 273 560 c 6,16,-1
 273 543 l 5,17,-1
 273 -18 l 5,18,-1
 133 -18 l 5,19,-1
 133 1382 l 5,0,-1
EndSplineSet
Validated: 3073
EndChar

StartChar: i
Encoding: 105 105 74
Width: 1220
VWidth: 0
Flags: W
LayerCount: 2
Back
Fore
SplineSet
412 1290 m 0,0,1
 412 1378 412 1378 548 1378 c 0,2,3
 685 1378 685 1378 685 1290 c 0,4,5
 685 1218 685 1218 548.5 1218 c 128,-1,6
 412 1218 412 1218 412 1290 c 0,0,1
310 957 m 9,7,-1
 685 957 l 1,8,-1
 685 140 l 1,9,-1
 955 140 l 1,10,-1
 955 0 l 1,11,-1
 274 0 l 1,12,-1
 274 140 l 1,13,-1
 545 140 l 1,14,-1
 545 817 l 1,15,-1
 310 817 l 1,16,-1
 310 957 l 9,7,-1
EndSplineSet
Validated: 3073
EndChar

StartChar: j
Encoding: 106 106 75
Width: 1220
VWidth: 0
Flags: W
LayerCount: 2
Back
Fore
SplineSet
566 -54 m 1052,0,-1
681 1292 m 0,1,2
 681 1378 681 1378 817.5 1378 c 128,-1,3
 954 1378 954 1378 954 1292 c 0,4,5
 954 1220 954 1220 817.5 1220 c 128,-1,6
 681 1220 681 1220 681 1292 c 0,1,2
818 817 m 1,7,-1
 546 817 l 1,8,-1
 546 957 l 25,9,-1
 958 957 l 1,10,-1
 958 28 l 1,11,-1
 958 -39 l 1,12,13
 958 -336 958 -336 598 -336 c 0,14,15
 131 -336 131 -336 131 0 c 2,16,-1
 131 134 l 9,17,-1
 271 134 l 1,18,-1
 271 0 l 2,19,20
 271 -196 271 -196 598 -196 c 0,21,22
 818 -196 818 -196 818 -39 c 2,23,-1
 818 29 l 1,24,-1
 818 817 l 1,7,-1
EndSplineSet
Validated: 3073
EndChar

StartChar: k
Encoding: 107 107 76
Width: 1220
VWidth: 0
Flags: W
LayerCount: 2
Back
Fore
SplineSet
273 425 m 17,0,-1
 273 -18 l 1,1,-1
 133 -18 l 1,2,-1
 133 1382 l 1,3,-1
 273 1382 l 1,4,-1
 273 565 l 9,5,-1
 1088 977 l 25,6,-1
 1088 827 l 25,7,-1
 401 501 l 25,8,-1
 1088 134 l 25,9,-1
 1088 -16 l 25,10,-1
 273 425 l 17,0,-1
EndSplineSet
Validated: 3073
EndChar

StartChar: l
Encoding: 108 108 77
Width: 1220
VWidth: 0
Flags: W
LayerCount: 2
Back
Fore
SplineSet
274 1368 m 9,0,-1
 685 1368 l 1,1,-1
 685 140 l 1,2,-1
 954 140 l 1,3,-1
 954 0 l 9,4,-1
 274 0 l 1,5,-1
 274 140 l 1,6,-1
 545 140 l 1,7,-1
 545 1228 l 1,8,-1
 274 1228 l 1,9,-1
 274 1368 l 9,0,-1
EndSplineSet
Validated: 3073
EndChar

StartChar: m
Encoding: 109 109 78
Width: 1220
VWidth: 0
Flags: W
LayerCount: 2
Back
Fore
SplineSet
547 634 m 2,0,1
 547 847 547 847 395 847 c 0,2,3
 273 847 273 847 273 786 c 1,4,-1
 273 -18 l 17,5,-1
 133 -18 l 1,6,-1
 133 991 l 1,7,-1
 273 991 l 9,8,-1
 273 947 l 17,9,10
 273 991 273 991 396 991 c 0,11,12
 588 991 588 991 588 901 c 1,13,14
 645 987 645 987 751 987 c 0,15,16
 1087 987 1087 987 1087 634 c 2,17,-1
 1087 601 l 1,18,-1
 1087 -18 l 1,19,-1
 948 -18 l 1,20,-1
 948 602 l 1,21,-1
 948 634 l 2,22,23
 948 847 948 847 751 847 c 0,24,25
 686 847 686 847 686 785 c 1,26,27
 686 656 686 656 686 634 c 2,28,-1
 686 601 l 1,29,-1
 686 124 l 1,30,-1
 547 124 l 1,31,-1
 547 602 l 1,32,-1
 547 634 l 2,0,1
EndSplineSet
EndChar

StartChar: n
Encoding: 110 110 79
Width: 1220
VWidth: 0
Flags: W
LayerCount: 2
Back
Fore
SplineSet
139 957 m 5,0,-1
 279 957 l 5,1,-1
 279 829 l 5,2,-1
 279 802 l 5,3,4
 279 968 279 968 723 968 c 4,5,6
 1094 968 1094 968 1094 634 c 6,7,-1
 1094 602 l 5,8,-1
 1094 -18 l 5,9,-1
 954 -18 l 5,10,-1
 954 602 l 5,11,-1
 954 634 l 6,12,13
 954 828 954 828 724 828 c 4,14,15
 279 828 279 828 279 560 c 6,16,-1
 279 543 l 5,17,-1
 279 -18 l 5,18,-1
 139 -18 l 5,19,-1
 139 957 l 5,0,-1
EndSplineSet
Validated: 3073
EndChar

StartChar: o
Encoding: 111 111 80
Width: 1220
VWidth: 0
Flags: W
LayerCount: 2
Back
Fore
SplineSet
614 972 m 4,0,1
 1089 972 1089 972 1089 638 c 6,2,-1
 1089 606 l 5,3,-1
 1089 352 l 5,4,-1
 1089 320 l 6,5,6
 1089 -14 1089 -14 613 -14 c 4,7,8
 133 -14 133 -14 133 321 c 6,9,-1
 133 353 l 5,10,-1
 133 607 l 5,11,-1
 133 639 l 5,12,13
 133 972 133 972 614 972 c 4,0,1
611 126 m 148,-1,15
 949 126 949 126 949 320 c 6,16,-1
 949 352 l 5,17,-1
 949 606 l 5,18,-1
 949 638 l 5,19,20
 949 832 949 832 614 832 c 12,21,22
 273 832 273 832 273 639 c 6,23,-1
 273 607 l 5,24,-1
 273 353 l 5,25,-1
 273 321 l 14,26,27
 273 126 273 126 611 126 c 148,-1,15
EndSplineSet
Validated: 3073
EndChar

StartChar: p
Encoding: 112 112 81
Width: 1220
VWidth: 0
Flags: W
LayerCount: 2
Back
Fore
SplineSet
274 624 m 1,0,-1
 274 463 l 1,1,-1
 274 446 l 2,2,3
 274 178 274 178 704 178 c 0,4,5
 949 178 949 178 949 372 c 2,6,-1
 949 404 l 1,7,-1
 949 658 l 1,8,-1
 949 690 l 1,9,10
 949 851 949 851 705 851 c 0,11,12
 274 851 274 851 274 639 c 1,13,-1
 274 624 l 1,0,-1
274 827 m 1,14,15
 274 991 274 991 705 991 c 0,16,17
 1089 991 1089 991 1089 690 c 2,18,-1
 1089 657 l 1,19,-1
 1089 405 l 1,20,-1
 1089 372 l 2,21,22
 1089 38 1089 38 704 38 c 0,23,24
 274 38 274 38 274 210 c 1,25,-1
 274 203 l 1,26,-1
 274 -342 l 1,27,-1
 134 -342 l 1,28,-1
 134 991 l 1,29,-1
 274 991 l 1,30,-1
 274 827 l 1,14,15
EndSplineSet
EndChar

StartChar: q
Encoding: 113 113 82
Width: 1220
VWidth: 0
Flags: W
LayerCount: 2
Back
Fore
SplineSet
952 675 m 5,0,-1
 952 690 l 5,1,2
 952 852 952 852 521 852 c 4,3,4
 277 852 277 852 277 692 c 5,5,-1
 277 660 l 5,6,-1
 277 404 l 1,7,-1
 277 372 l 2,8,9
 277 178 277 178 522 178 c 0,10,11
 952 178 952 178 952 446 c 2,12,-1
 952 463 l 1,13,-1
 952 675 l 5,0,-1
952 828 m 5,14,15
 952 992 l 5,16,-1
 1092 992 l 5,17,-1
 1092 -342 l 1,18,-1
 952 -342 l 1,19,-1
 952 203 l 1,20,-1
 952 210 l 1,21,22
 952 38 952 38 522 38 c 0,23,24
 137 38 137 38 137 372 c 2,25,-1
 137 405 l 1,26,-1
 137 659 l 5,27,-1
 137 692 l 6,28,29
 137 992 137 992 521 992 c 4,30,31
 952 992 952 992 952 828 c 5,14,15
EndSplineSet
EndChar

StartChar: u
Encoding: 117 117 86
Width: 1220
VWidth: 0
Flags: W
LayerCount: 2
Back
Fore
SplineSet
869 99 m 1,0,1
 869 -26 869 -26 500 -26 c 0,2,3
 132 -26 132 -26 132 307 c 2,4,-1
 132 339 l 1,5,-1
 132 982 l 1,6,-1
 272 982 l 1,7,-1
 272 339 l 1,8,-1
 272 307 l 2,9,10
 272 113 272 113 495 113 c 0,11,12
 818 113 818 113 818 381 c 2,13,-1
 818 398 l 1,14,-1
 818 981 l 1,15,-1
 958 981 l 1,16,-1
 958 220 l 1,17,18
 990 204 990 204 1058 107 c 0,19,20
 1082 73 1082 73 1082 -13 c 1,21,-1
 1028 -13 l 1,22,23
 1021 6 1021 6 954 63 c 0,24,25
 912 99 912 99 869 99 c 1,0,1
EndSplineSet
EndChar

StartChar: y
Encoding: 121 121 90
Width: 1220
VWidth: 0
Flags: W
LayerCount: 2
Back
Fore
SplineSet
818 333 m 1,0,-1
 818 972 l 1,1,-1
 958 972 l 1,2,-1
 958 39 l 1,3,-1
 958 0 l 1,4,5
 958 -342 958 -342 597 -342 c 0,6,7
 131 -342 131 -342 131 -105 c 2,8,-1
 131 -69 l 9,9,-1
 271 -69 l 1,10,-1
 271 -105 l 2,11,12
 271 -202 271 -202 597 -202 c 0,13,14
 818 -202 818 -202 818 0 c 2,15,-1
 818 40 l 1,16,-1
 818 153 l 1,17,-1
 818 180 l 10,18,19
 818 55 818 55 596 55 c 0,20,21
 136 55 136 55 136 316 c 10,22,-1
 136 349 l 17,23,-1
 136 972 l 1,24,-1
 276 972 l 1,25,-1
 276 349 l 9,26,-1
 276 316 l 26,27,28
 276 195 276 195 597 195 c 24,29,30
 818 195 818 195 818 316 c 2,31,-1
 818 333 l 1,0,-1
EndSplineSet
Validated: 3073
EndChar

StartChar: bar
Encoding: 124 124 93
Width: 1220
VWidth: 0
Flags: W
LayerCount: 2
Back
Fore
SplineSet
543 1500 m 5,0,-1
 683 1500 l 5,1,-1
 683 -118 l 1,2,-1
 543 -118 l 1,3,-1
 543 1500 l 5,0,-1
EndSplineSet
Validated: 1
EndChar

